<?xml version="1.0" encoding="utf-8"?>
<!-- Generator: Adobe Illustrator 23.0.1, SVG Export Plug-In . SVG Version: 6.00 Build 0)  -->
<svg version="1.1" id="Calque_1" xmlns="http://www.w3.org/2000/svg" xmlns:xlink="http://www.w3.org/1999/xlink" x="0px" y="0px"
	 viewBox="0 0 250 110" style="enable-background:new 0 0 250 110;" xml:space="preserve">
<style type="text/css">
	.st0{clip-path:url(#SVGID_2_);fill:#1F1D21;}
</style>
<g>
	<defs>
		<rect id="SVGID_1_" x="6" y="5" width="237.01" height="100"/>
	</defs>
	<clipPath id="SVGID_2_">
		<use xlink:href="#SVGID_1_"  style="overflow:visible;"/>
	</clipPath>
	<path class="st0" d="M234.48,100.68l-1.29,3.26c1.3,0.66,2.99,1.06,4.45,1.06c2.5,0,5.01-1.36,5.01-4.13
		c0-1.96-1.29-2.92-3.07-3.31l-0.95-0.21c-0.32-0.08-0.85-0.14-0.85-0.57c0-0.48,0.54-0.61,0.9-0.61c0.9,0,1.72,0.38,2.44,0.87
		l1.13-2.96c-1.13-0.69-2.35-1.01-3.66-1.01c-2.51,0-5.01,1.53-5.01,4.28c0,1.81,1.38,2.78,3.02,3.07l0.84,0.15
		c0.38,0.08,0.94,0.12,0.94,0.64c0,0.52-0.66,0.69-1.07,0.69c-0.97,0-1.87-0.47-2.62-1.06L234.48,100.68z M223.24,100.68l-1.29,3.26
		c1.3,0.66,2.99,1.06,4.45,1.06c2.5,0,5.02-1.36,5.02-4.13c0-1.96-1.29-2.92-3.07-3.31l-0.95-0.21c-0.32-0.08-0.85-0.14-0.85-0.57
		c0-0.48,0.54-0.61,0.91-0.61c0.9,0,1.72,0.38,2.44,0.87l1.13-2.96c-1.13-0.69-2.35-1.01-3.67-1.01c-2.51,0-5.01,1.53-5.01,4.28
		c0,1.81,1.38,2.78,3.02,3.07l0.84,0.15c0.38,0.08,0.94,0.12,0.94,0.64c0,0.52-0.66,0.69-1.07,0.69c-0.97,0-1.87-0.47-2.62-1.06
		L223.24,100.68z M219.62,93.26h-7.77v11.56h7.9v-3.16h-3.67v-1.14h3.24v-3h-3.24v-1.11h3.54V93.26z M201.43,93.26h-4.03v11.56h4.01
		v-3.76c0-0.77-0.12-1.52-0.26-2.32h0.12l3.7,6.07h4.02V93.26h-4.02v3.46c0,0.98,0.18,1.98,0.35,2.95h-0.13L201.43,93.26z
		 M194.43,93.26h-4.2v11.56h4.2V93.26z M179.65,100.68l-1.29,3.26c1.3,0.66,2.99,1.06,4.45,1.06c2.5,0,5.01-1.36,5.01-4.13
		c0-1.96-1.29-2.92-3.07-3.31l-0.95-0.21c-0.32-0.08-0.84-0.14-0.84-0.57c0-0.48,0.54-0.61,0.9-0.61c0.9,0,1.72,0.38,2.44,0.87
		l1.13-2.96c-1.13-0.69-2.34-1.01-3.66-1.01c-2.52,0-5.02,1.53-5.02,4.28c0,1.81,1.38,2.78,3.02,3.07l0.84,0.15
		c0.39,0.08,0.94,0.12,0.94,0.64c0,0.52-0.66,0.69-1.07,0.69c-0.96,0-1.87-0.47-2.62-1.06L179.65,100.68z M169.53,93.26h-4.2v6.84
		c0,3.37,2.12,4.91,5.35,4.91c3.24,0,5.35-1.53,5.35-4.91v-6.84h-4.2v6.44c0,0.91-0.03,1.7-1.15,1.7c-1.12,0-1.15-0.8-1.15-1.7
		V93.26z M157.18,96.04c0.62,0,1.4-0.06,1.4,0.79c0,0.79-0.69,0.85-1.3,0.85h-0.38v-1.64H157.18z M156.89,100.12h0.41
		c0.68,0,1.75-0.01,1.75,0.96c0,0.96-1,0.97-1.69,0.97h-0.47V100.12z M157.89,93.26H153v11.56h5.72c2.02,0,4.23-0.81,4.23-3.19
		c0-1.39-0.8-2.31-2.05-2.76v-0.09c1.01-0.32,1.51-1.32,1.51-2.32C162.41,93.79,160.13,93.26,157.89,93.26 M135.31,96.87h0.26
		c1.53,0,2.47,0.69,2.47,2.32c0,1.52-1.08,2.16-2.47,2.16h-0.26V96.87z M135.39,93.26h-4.28v11.56h5.32c3.39,0,5.81-2.18,5.81-5.61
		C142.25,94.96,139.27,93.26,135.39,93.26 M119.96,99.13c0-1.23,0.83-2.26,2.16-2.26c1.33,0,2.16,1.03,2.16,2.26
		c0,1.32-0.89,2.22-2.16,2.22C120.85,101.35,119.96,100.45,119.96,99.13 M115.73,99.07c0,3.71,2.87,5.93,6.39,5.93
		s6.39-2.22,6.39-5.93c0-3.64-2.88-5.99-6.39-5.99C118.61,93.07,115.73,95.43,115.73,99.07 M105.03,99.13
		c0-1.23,0.83-2.26,2.16-2.26c1.33,0,2.16,1.03,2.16,2.26c0,1.32-0.89,2.22-2.16,2.22C105.91,101.35,105.03,100.45,105.03,99.13
		 M100.79,99.07c0,3.71,2.87,5.93,6.4,5.93s6.39-2.22,6.39-5.93c0-3.64-2.88-5.99-6.39-5.99C103.68,93.07,100.79,95.43,100.79,99.07
		 M98.64,93.26H90.9v11.56h4.23v-4.05h3.08v-3h-3.08v-1.2h3.51V93.26z M79.78,93.26h-7.77v11.56h7.9v-3.16h-3.67v-1.14h3.24v-3
		h-3.24v-1.11h3.54V93.26z M63.82,96.41c0.72,0,1.35,0.11,1.35,1c0,0.86-0.69,0.96-1.38,0.96H63.5v-1.96H63.82z M64.46,93.26h-5.07
		v11.56h4.11v-3.71h0.08l1.84,3.71h4.85l-2.51-3.76c-0.23-0.34-0.49-0.52-0.71-0.69v-0.09c1.57-0.52,2.24-1.26,2.24-3.01
		C69.28,94.36,67.07,93.26,64.46,93.26 M56.36,93.26h-4.2v11.56h4.2V93.26z M44.34,96.41c0.69,0,1.55,0.05,1.55,0.95
		c0,0.94-0.8,1.06-1.54,1.06h-0.41v-2.01H44.34z M45.21,93.26h-5.32v11.56h4.05v-3.48h2.15c2.34,0,3.82-1.47,3.82-3.83
		C49.91,94.63,47.91,93.26,45.21,93.26 M29.34,100.68l-1.29,3.26c1.3,0.66,2.99,1.06,4.44,1.06c2.5,0,5.02-1.36,5.02-4.13
		c0-1.96-1.29-2.92-3.07-3.31l-0.95-0.21c-0.32-0.08-0.85-0.14-0.85-0.57c0-0.48,0.54-0.61,0.91-0.61c0.9,0,1.72,0.38,2.44,0.87
		l1.13-2.96c-1.13-0.69-2.35-1.01-3.66-1.01c-2.52,0-5.01,1.53-5.01,4.28c0,1.81,1.38,2.78,3.02,3.07l0.85,0.15
		c0.38,0.08,0.94,0.12,0.94,0.64c0,0.52-0.66,0.69-1.08,0.69c-0.97,0-1.87-0.47-2.62-1.06L29.34,100.68z M18.18,93.26h-4.03v11.56
		h4.02v-3.76c0-0.77-0.12-1.52-0.26-2.32h0.12l3.7,6.07h4.02V93.26h-4.02v3.46c0,0.98,0.18,1.98,0.35,2.95h-0.12L18.18,93.26z
		 M11.18,93.26h-4.2v11.56h4.2V93.26z M243.01,75.63l-0.3-0.78c-1.35-3.55-3.34-7.62-6.8-7.62c-0.47,0-0.97,0.08-1.53,0.24
		c-4.58,1.6-9.35,2.38-14.58,2.39c-11.1,0-16.96-3.98-16.97-11.52L202.6,7.92V6.15L202,5.96c-1.02-0.32-2.63-0.7-4.53-0.7
		c-2.82,0-5.37,0.83-7.61,2.45l-0.35,0.25l0.03,48.55l-0.01-4.39l-20.59,0.01L145.51,6.25l-0.15-0.29l-0.29-0.11
		C144.29,5.53,142.67,5,140.66,5c-4.98,0-9.21,3.28-12.23,9.46l-18.78,37.7l-22.88,0.01L86.6,7.25l-0.07-1.14l-0.59-0.18
		c-1.02-0.32-2.63-0.7-4.53-0.7c-2.82,0-5.38,0.83-7.61,2.45l-0.35,0.26l0.02,44.25l-12.8,0.01c0,0.01,0,0.01,0.01,0.02
		c-1.76-8.04-8.21-12.22-22.27-15.02l-0.37-0.08c-12.65-2.49-20.29-3.99-20.3-11.99c0-9.59,12.34-9.6,16.4-9.6
		c3.93,0,8.14,0.42,11.51,1.16c5.07,1.18,7.12-3.4,8.68-7.7l0.32-0.88l-0.91-0.24c-6.42-1.64-12.42-2.43-18.32-2.43
		C16.44,5.46,5.99,12.84,6,26.25c0,6.66,2.59,11.56,7.91,15.02c4.89,3.13,11.63,4.63,19.43,6.36l1.06,0.23
		c8.42,1.86,14.5,3.2,14.5,10.58c0,3.46-1.74,11.52-17.97,11.53c-5.24,0-10.03-0.78-14.72-2.42c-0.44-0.12-0.93-0.19-1.38-0.19
		c-3.44,0-5.37,3.85-6.8,7.62l-0.3,0.79l0.78,0.31c6.72,2.64,14.64,3.98,23.54,3.97c11.79,0,25.57-3.12,28.54-16.85
		c-0.02,0.07-0.02,0.15-0.03,0.22l12.91-0.01v-4.49l0.01,18.99l13.39,0l-0.07-19.95l0.02,5.44l17.24-0.01l2.87-5.77l-2.87,5.77h0
		l-7.08,14.21l12.46,0l28.76-58.91l15.93,32.46l0.53,0.98l-19.5,0.01l19.5,0l-21.35,0h-2.66l-4.89,9.99l-0.39,1.22l34.77,0.07
		l6.96,14.16l14.84,0l-7.25-14.21l15.52-0.01c-0.02-0.07-0.02-0.15-0.04-0.22c3,13.71,16.76,16.81,28.54,16.8
		c8.9,0,16.82-1.36,23.53-4.01L243.01,75.63z"/>
</g>
</svg>
